<svg xmlns="http://www.w3.org/2000/svg" xmlns:xlink="http://www.w3.org/1999/xlink" width="130" height="26" viewBox="0 0 130 26">
    <defs>
        <path id="a" d="M14.855 25.258V.118H.165v25.14h14.69z"/>
    </defs>
    <g fill="none" fill-rule="evenodd">
        <path fill="#FFF" d="M38.366 14.962h-6.519a6.22 6.22 0 0 1 .222 1.624 6.226 6.226 0 0 1-6.227 6.226 6.22 6.22 0 0 1-5.542-3.4h-2.797c1.179 3.479 4.463 5.985 8.339 5.985a8.771 8.771 0 0 0 5.292-1.766l-.001.003s2.388-1.761 4.946-3.959a386.088 386.088 0 0 0 3.474-3.026c1.119-.986-1.187-1.687-1.187-1.687m-18.75 1.624a6.226 6.226 0 0 1 11.711-2.947h2.813c-1.213-3.416-4.466-5.864-8.298-5.864-1.91 0-3.678.61-5.122 1.644l.005-.012s-2.388 1.762-4.946 3.96c-.99.849-2.019 1.748-2.908 2.531-1.411 1.241.032 2.19.032 2.19l6.904.001a6.228 6.228 0 0 1-.19-1.503"/>
        <path fill="#FFF" d="M39.158 20.018v1.327c0 .983.37 1.611 1.11 1.884.752.274 2.297.41 4.639.41 1.448 0 2.466-.185 3.054-.556.588-.382.882-1.135.882-2.259v-.54c0-1.494-.791-2.263-2.373-2.307l-.704-.049-4.156-.23c-3.382-.173-5.072-1.732-5.072-4.675 0-2.07.507-3.444 1.52-4.12 1.014-.675 3.032-1.014 6.052-1.014 2.496 0 4.273.279 5.331.835 1.069.556 1.625 1.64 1.669 3.254v.622h-2.738v-.588c0-.794-.229-1.32-.686-1.582-.447-.26-1.367-.391-2.76-.391h-1.6c-1.678 0-2.771.168-3.283.506-.512.337-.768.98-.768 1.927v.785c0 1.318.682 2.026 2.046 2.123l4.5.31 1.162.066c3.065.186 4.598 1.73 4.598 4.631v.393c0 1.66-.459 2.908-1.374 3.748-.906.84-2.873 1.26-5.904 1.26-2.922 0-4.967-.311-6.134-.934-1.166-.623-1.749-1.7-1.749-3.23v-1.606h2.738zM52.635 8.066h2.355v-4.18h2.65v4.18h6.8v2.149h-6.8v11.07c0 .926.163 1.553.49 1.88.337.316.963.474 1.878.474 1.023 0 1.726-.18 2.107-.538.392-.37.588-1.076.588-2.12v-1.728h2.532v1.405c0 3.42-1.708 5.13-5.123 5.13-2.149 0-3.54-.37-4.172-1.112-.633-.753-.95-2.083-.95-3.992v-10.47h-2.355V8.067zM66.328 8.066h2.355v-4.18h2.65v4.18h6.8v2.149h-6.8v11.07c0 .926.163 1.553.49 1.88.338.316.963.474 1.878.474 1.024 0 1.726-.18 2.108-.538.391-.37.587-1.076.587-2.12v-1.728h2.532v1.405c0 3.42-1.707 5.13-5.122 5.13-2.15 0-3.54-.37-4.173-1.112-.633-.753-.95-2.083-.95-3.992v-10.47h-2.355V8.067zM83.29 15.25h9.831c-.076-2.048-.338-3.426-.785-4.133-.436-.719-1.696-1.079-3.779-1.079-2.149 0-3.545.278-4.188.833-.644.545-1.004 2.005-1.08 4.378zm0 2.148v1.617c0 1.721.277 2.925.833 3.611.557.676 1.784 1.013 3.682 1.013h.67c2.029 0 3.31-.185 3.845-.556.534-.371.801-1.305.801-2.8h2.738v.508c0 1.923-.546 3.239-1.637 3.948-1.08.7-2.925 1.049-5.534 1.049-3.263 0-5.435-.556-6.516-1.669-1.08-1.112-1.62-3.446-1.62-7.002 0-3.697.507-6.157 1.522-7.379 1.014-1.232 3.116-1.849 6.303-1.849 2.936 0 4.917.524 5.943 1.572 1.026 1.037 1.539 3.027 1.539 5.973v1.964h-12.57zM110.682 19.253h2.65v.996c0 2.233-.623 3.715-1.867 4.444-1.233.73-3.05 1.095-5.45 1.095-3.449 0-5.647-.627-6.597-1.881-.95-1.265-1.424-3.6-1.424-7.003 0-3.632.534-6.042 1.604-7.231s3.121-1.784 6.155-1.784c2.673 0 4.556.427 5.647 1.28 1.091.841 1.637 2.246 1.637 4.214v.541h-2.65v-.607c0-1.29-.289-2.158-.867-2.607-.568-.448-1.85-.671-3.846-.671-2.28 0-3.677.43-4.19 1.291-.502.85-.752 2.812-.752 5.885 0 3.019.354 4.844 1.064 5.476.709.632 2.17.948 4.385.948 1.9 0 3.12-.228 3.666-.685.557-.467.835-1.7.835-3.701"/>
        <g transform="translate(114.928 .353)">
            <mask id="b" fill="#fff">
                <use xlink:href="#a"/>
            </mask>
            <path fill="#FFF" d="M.165.118h2.65V9.89c.687-1.57 2.519-2.355 5.496-2.355 2.454 0 4.155.464 5.104 1.391.96.928 1.44 2.493 1.44 4.697v11.634h-2.65v-11.68c0-1.559-.294-2.595-.883-3.108-.578-.523-1.642-.785-3.19-.785-1.996 0-3.382.333-4.156.998-.775.654-1.161 2.105-1.161 4.351v10.224H.165V.118z" mask="url(#b)"/>
        </g>
        <path fill="#FFF" d="M0 .471h2.65v9.774c.687-1.57 2.519-2.356 5.496-2.356 2.454 0 4.155.464 5.104 1.391.96.928 1.44 2.493 1.44 4.697V25.61h-2.65v-11.68c0-1.558-.294-2.595-.883-3.108-.578-.523-1.642-.785-3.19-.785-1.996 0-3.382.333-4.156.998-.775.655-1.162 2.105-1.162 4.352V25.61H0V.471z"/>
    </g>
</svg>
