<svg xmlns="http://www.w3.org/2000/svg" xmlns:xlink="http://www.w3.org/1999/xlink" width="22" height="22" viewBox="0 0 22 22">
    <defs>
        <path id="a" d="M21.873 0H0v22h21.872V0z"/>
    </defs>
    <g fill="none" fill-rule="evenodd">
        <mask id="b" fill="#fff">
            <use xlink:href="#a"/>
        </mask>
        <path fill="#FFF" d="M16.378 8.53l.009.352c0 3.579-2.71 7.704-7.662 7.704a7.585 7.585 0 0 1-4.127-1.217 5.388 5.388 0 0 0 3.986-1.119 2.696 2.696 0 0 1-2.515-1.882 2.708 2.708 0 0 0 1.216-.046 2.707 2.707 0 0 1-2.16-2.656v-.033c.364.203.778.324 1.22.339a2.711 2.711 0 0 1-1.197-2.254c0-.496.132-.96.363-1.361a7.627 7.627 0 0 0 5.55 2.83 2.733 2.733 0 0 1-.07-.617 2.7 2.7 0 0 1 2.694-2.707c.774 0 1.473.328 1.965.854a5.415 5.415 0 0 0 1.71-.657 2.72 2.72 0 0 1-1.183 1.499 5.392 5.392 0 0 0 1.546-.426 5.453 5.453 0 0 1-1.345 1.398M10.937 0C4.897 0 0 4.926 0 11c0 6.075 4.896 11 10.936 11s10.936-4.925 10.936-11S16.977 0 10.937 0" mask="url(#b)"/>
    </g>
</svg>
