<?xml version="1.0" encoding="utf-8"?>
<!-- Generator: Adobe Illustrator 22.0.1, SVG Export Plug-In . SVG Version: 6.00 Build 0)  -->
<svg version="1.1" id="Ebene_1" xmlns="http://www.w3.org/2000/svg" xmlns:xlink="http://www.w3.org/1999/xlink" x="0px" y="0px"
	 viewBox="0 0 669 122" style="enable-background:new 0 0 669 122;" xml:space="preserve">
<style type="text/css">
	.st0{fill:#FFFFFF;}
</style>
<title>We love to host you!</title>
<desc>Created with Sketch.</desc>
<g id="Neuinstallation-Webhosting" transform="translate(-388.000000, -259.000000)">
	<g>
		<path class="st0" d="M447.2,331.6c-0.3-3.1-7-4-8.2-3.6c-6.3,4.1-10.7,27-11.5,31.1l-0.6,0.1c-0.9-7-0.1-15.3,1.1-22.7
			c0.2-1.3-3.7-4.1-8.6-3.7c-2.4,0.2-3.2,0.7-4.1,2.9c-1.3,5.7-3.6,14.4-6.1,22.3h-0.6c-0.1-0.7-0.4-1.9-0.4-3.3
			c-0.2-4.6,0.3-11.2,1.5-16.3c0.3-1.2-5.6-3.9-9.9-3.6c-4.9,0.4-4.9,16.7-4.4,22.4c1,11.6,3.4,21.8,12.6,20.6
			c1.3-0.2,3-0.7,3.4-1.1c0.4-6.5,1.9-14.5,4.3-20.6h0.5c0,1.3,1.4,13.7,1.6,15.8c0.5,3.7,5.2,8.4,12.3,7.8c2.5-0.2,3.9-1.5,3.9-1.5
			c0.2-13.1,4.6-27.1,9.2-37.3C444.7,337.4,447.5,334.7,447.2,331.6z"/>
		<path class="st0" d="M473.5,355.7c-1.3,0.1-2.1,0.8-2.1,0.8c-0.4,4.6-4.2,13.5-11.7,14.2c-2.9,0.3-4.8-1.3-5.2-5.2
			c-0.5-5.5,0.8-9.6,0.9-9.8c0.2,0.3,2.6,3.6,7.2,3.1c5.2-0.5,10.6-9,9.7-19.2c-0.8-8.8-9.6-11.4-14.2-11c-12,1.1-17.6,21-16.3,35.5
			c0.9,10,11.2,14.8,20.6,13.9c13.6-1.2,18.8-11.8,18.2-18.3C480.3,356.6,477.2,355.4,473.5,355.7z M459.5,337
			c0.4-1.1,0.7-1.3,1-1.4c0.4,0,0.9,0.2,1.1,3.2c0.4,5.4-1,12.9-3.7,13.2c-1.4,0.1-1.9-1.5-1.9-1.5
			C456.5,346.3,458.1,340.9,459.5,337z"/>
		<path class="st0" d="M504.7,308c-0.6,0.1-1.6,0.2-1.8,0.9c-3.1,14-5.8,40.2-5.8,52.6c0,2.6-0.3,6.1,0.5,7.2
			c0.8,1.3,12.2,4.1,13.3,2.6c0-2.2,0-4.3,0.1-6.5c0.1-17.5,2.2-36,5.1-53.2C516.3,310.1,507.6,307.8,504.7,308z"/>
		<path class="st0" d="M536.2,323.9c-2.6,0.2-4.3,1.4-4.3,1.4c-0.5-0.8-1.7-1.4-3.4-1.8c-7.9,2.2-14.6,16.3-14.4,26.9
			c0.4,9,6.2,19.7,19.5,18.5c16.2-1.4,19.3-21.1,19-30.1C552.2,330.4,549.5,322.7,536.2,323.9z M531.7,361.1
			c-2.9,0.3-4.4-3.9-4.4-9.4c-0.1-2.6,0.4-4.6,0.4-4.6c0.4,0.4,2,0.7,2,0.5c0.5-4.1,3.5-16.6,7.6-17c2.8-0.2,2.5,4.7,2.5,6.8
			C539.9,341.5,538.2,360.5,531.7,361.1z"/>
		<path class="st0" d="M586.6,318c-0.3-3.4-7.4-4-8.4-3.9c-3.8,0.3-8.9,22.1-10,32.5h-0.6c-0.2-1.3-1.2-4.9-1.3-9.2
			c0-3.1-0.2-9.1,0.5-14.6c-0.1-2.5-9.1-4.1-10.9-3.9c-1.8,0.2-2.6,1-2.8,2.5c0,0,0.4,12.8,0.9,18.1c1.1,12.8,3.5,19.6,4.5,22.4
			c1.2,3.7,5.6,6.2,12.3,5.6c2.4-0.2,3.9-1.5,3.9-1.5c0.3-13.5,5.2-29.8,8.1-38.1C584,324.6,587,321.5,586.6,318z"/>
		<path class="st0" d="M614.4,343.4c-1.3,0.1-2.1,0.8-2.1,0.8c-0.4,4.6-4.2,13.5-11.7,14.2c-2.9,0.3-4.8-1.3-5.2-5.2
			c-0.5-5.5,0.8-9.6,0.9-9.8c0.2,0.3,2.6,3.6,7.2,3.1c5.2-0.5,10.6-9,9.7-19.2c-0.8-8.8-9.6-11.4-14.2-11c-12,1.1-17.6,21-16.3,35.5
			c0.9,10,11.2,14.8,20.6,13.9c13.6-1.2,18.8-11.8,18.2-18.3C621.2,344.2,618.1,343.1,614.4,343.4z M600.4,324.6
			c0.4-1.1,0.7-1.3,1-1.4c0.4,0,0.9,0.2,1.1,3.2c0.4,5.4-1,12.9-3.7,13.2c-1.4,0.1-1.9-1.5-1.9-1.5C597.4,334,599,328.5,600.4,324.6
			z"/>
		<path class="st0" d="M692.8,310.2c-2.6,0.2-4.3,1.4-4.3,1.4c-0.5-0.8-1.7-1.4-3.4-1.8c-3.7,1-7.1,4.6-9.6,9.2c0,0,0,0,0-0.1
			c0-0.5-2.2-4.5-2.9-4.6c-1.7-0.5-3.5-1.1-4.4-2.2c-0.7-1-3.1-0.5-5.7-0.1l-2.5,0.4l1.2-4.8c0.2-0.8-8.8-4.1-10.8-2.9
			c-1.3,0.8-3.1,5.1-4.8,10.7c-5.3,1.3-10.1,2.6-11.3,3.4c-1.5,1.1,2,8.6,5.1,7.8c0.8-0.1,2-0.5,3.4-0.8c-1.7,7.6-2.8,15.3-2.5,19.3
			c0.7,8.4,7.1,13.4,15.4,12.6c7.8-0.7,15.7-4.6,18.4-10.2c3,4.9,8.3,8.4,16.2,7.7c16.2-1.4,19.3-21.1,19.1-30.1
			C708.8,316.7,706.1,309,692.8,310.2z M667.5,337.1c-0.2,3.7-3.8,11.6-10,12.1c-1.4,0.1-2.5-0.8-2.7-3.1
			c-0.5-5.2,1.1-14.5,2.9-23.4c5.7-1.1,11.5-2,16-2.4c0.6,0,0.9-0.2,1.2-0.3c-2.7,5.1-4.3,11.4-4.2,16.7c0,0.2,0,0.3,0,0.5
			C669.1,336.8,667.5,337.1,667.5,337.1z M688.3,347.4c-2.9,0.3-4.4-3.9-4.4-9.4c-0.1-2.6,0.4-4.6,0.4-4.6c0.4,0.4,2,0.7,2,0.5
			c0.5-4.1,3.5-16.6,7.6-17c2.8-0.2,2.5,4.7,2.5,6.8C696.5,327.8,694.8,346.8,688.3,347.4z"/>
		<path class="st0" d="M882.2,296c-1.7-0.5-3.5-1.1-4.4-2.2c-0.7-1-3.1-0.5-5.7-0.1l-2.5,0.4l1.2-4.8c0.2-0.8-8.8-4.1-10.8-2.9
			c-1.3,0.8-3.1,5.1-4.8,10.7c-3.4,0.8-6.5,1.6-8.6,2.3c-1.4-1.8-3.2-3.7-3.9-3.6c-1.8,0.2-29.7,7.9-29.9,11.3c-0.1,2.1,2.6,8,3.8,9
			c5.8,0.3,15.5,5,16.1,12c0.4,4.7-1.6,8.1-5.6,8.4c-3.6,0.3-5-2.5-5-3c-0.1-0.6,3-7,3-9.2c0-0.6-3.8-3.5-8.1-3.1
			c-2.8,0.2-4.7,2.4-5.6,5.2c0.8-3.8,1-7.5,1-10.1c-0.4-8.4-3.2-16.1-16.5-14.9c-2.6,0.2-4.3,1.4-4.3,1.4c-0.5-0.8-1.7-1.4-3.4-1.8
			c-7.9,2.2-14.6,16.3-14.4,26.9c0.1,2,0.4,4.1,1.1,6.1c-0.7,3.8-2.4,7.4-4.9,7.6c-2.2,0.2-3.4-2-3.6-4.7
			c-0.7-7.7,3.9-25.3,3.5-29.4c-0.2-1.8-5.9-5.1-13.4-4.5c-3.3,0.3-9.3,20.1-10.5,24.8l-0.6-0.1c-0.3-3.1,1.7-23.3,2.7-27.4
			c0.6-2.5,1.9-6.3,1.6-10.3c-0.2-1.9-10.2-3.6-11.9-2.2c-4.4,3.8-6,48.3-5.4,54.8c0.5,5.3,5.8,7.7,11.4,7.2
			c2.6-0.2,4.3-1.5,4.3-1.5c-0.2-9.9,4.8-24.3,6-26.3h0.8c-0.4,2-1.5,10.8-1.1,15.3c0.6,6.9,4.2,11.4,12.7,10.7
			c5.7-0.5,10.4-3,13.2-6.2c3.1,3.1,7.6,5,13.6,4.5c10.3-0.9,15.3-9.2,17.5-17.4c-0.1,0.9-0.1,1.8-0.1,2.7
			c0.6,6.3,11.6,13.9,21.8,13c8.4-0.7,15.5-4.8,14.7-14c-1.2-13.9-19.7-18.4-19.7-18.4l-0.2-0.3c0.8-0.7,5.9-2.7,9.2-3.1
			c1.2-0.1,1.8,2,3,1.9c1.8-0.2,4.6-1.9,6.6-3.9c0.9,1,2,1.7,3,1.4c0.8-0.1,2-0.5,3.4-0.8c-1.7,7.6-2.8,15.3-2.5,19.3
			c0.7,8.4,7.1,13.4,15.4,12.6c9.9-0.9,20-7,19.3-15.3c-0.6-7-7.5-5.4-7.5-5.4c-0.2,3.7-3.8,11.6-10,12.1c-1.4,0.1-2.5-0.8-2.7-3.1
			c-0.5-5.2,1.1-14.5,2.9-23.4c5.7-1.1,11.5-2,16-2.4c1.6-0.1,1.8-0.8,1.7-1.4C885,300.1,882.8,296.1,882.2,296z M791.2,338.4
			c-2.9,0.3-4.4-3.9-4.4-9.4c-0.1-2.6,0.4-4.6,0.4-4.6c0.4,0.4,2,0.7,2,0.5c0.5-4.1,3.5-16.6,7.6-17c2.8-0.2,2.5,4.7,2.5,6.8
			C799.4,318.8,797.6,337.8,791.2,338.4z"/>
		<path class="st0" d="M926.5,290.5c-2.2,0.2-3.9,20.1-4.4,23c-0.5,3.2-3.1,10.3-5.3,10.5c-1.2,0.1-1.5-1.6-1.5-3.5
			c-0.3-8.4,2.2-17.2,4.1-25.6c-0.2-1.8-4.6-3.8-8.7-3.4c-2.5,0.2-4.2,1.3-5.3,3.5c-2.8,7.2-4.5,17.5-3.7,27.1
			c0.4,4.7,2.8,11.3,10.9,10.6c4.1-0.4,6.9-3.2,8.4-5.8c-0.4,6-2.8,16.1-2.5,19.2c0.1,1.3,0.3,1.6,1.4,1.9c2,0.5,8.3,2,9.6,1.9
			s2.1-0.3,2.5-3.2c0.3-7.4,1.8-23.2,2.9-31.4c0.4-4.1,4.1-14.3,3.5-21.9C938.1,291.6,931.5,290,926.5,290.5z"/>
		<path class="st0" d="M960.4,286.8c-2.6,0.2-4.3,1.4-4.3,1.4c-0.5-0.8-1.7-1.4-3.4-1.8c-7.9,2.2-14.6,16.3-14.4,26.9
			c0.4,9,6.2,19.7,19.4,18.5c16.2-1.4,19.3-21.1,19.1-30.1C976.5,293.3,973.7,285.6,960.4,286.8z M955.9,324
			c-2.9,0.3-4.4-3.9-4.4-9.4c-0.1-2.6,0.4-4.6,0.4-4.6c0.4,0.4,2,0.7,2,0.5c0.5-4.1,3.5-16.6,7.6-17c2.8-0.2,2.5,4.7,2.5,6.8
			C964.1,304.4,962.4,323.4,955.9,324z"/>
		<path class="st0" d="M1021,308.2c0,0-1.4,8.3-4.7,8.6c-2.2,0.2-3.3-2.3-3.2-5.3c-0.1-5.2,1.3-20.4,1.6-24.2
			c0.1-1.4-5.7-4.2-9.2-3.8c-1.9,0.2-3.1,0.8-3.2,1.4c-1.1,7.6-5.5,26.8-9.9,32.1l-0.9-0.3c-1.6-6,1.2-20,3.3-28.9
			c-0.6-0.9-4.2-2.6-9.9-2.1c-4.5,0.4-7.6,21.9-6.7,31.2c0.5,5.4,8.4,10.7,13.7,10.3c5.7-0.5,9.4-8.6,10.6-12.4l0.7,0.2
			c0.1,4.6,1.8,10.4,10.9,9.6c8.4-0.7,13.7-8.1,13.3-12.6S1021.6,308.2,1021,308.2z"/>
		<path class="st0" d="M1046.4,265c-0.9-0.6,0.8-2.9-0.4-3.4c-2.3-1-7.8-0.7-9.1-0.6c-0.6,0.1-1.6,0.6-1.7,1.3
			c-2.5,8.5-2.9,24.5-1.8,34.4c0.6,4.2,7.6,5.7,8.9,4.2c1.1-10.4,5.5-23.9,7.7-31.1C1051.4,266.6,1047.9,266,1046.4,265z"/>
		<path class="st0" d="M1039.7,308.8c-8.9,0.8-11.5,6.7-11.2,9.5c0.3,3.2,5.2,7.5,9.7,7.1c7-0.6,8.1-8.7,7.8-11.3
			C1045.7,310,1042,308.6,1039.7,308.8z"/>
	</g>
</g>
</svg>
