<?xml version="1.0" standalone="no"?>
<!DOCTYPE svg PUBLIC "-//W3C//DTD SVG 20010904//EN"
 "http://www.w3.org/TR/2001/REC-SVG-20010904/DTD/svg10.dtd">
<svg version="1.0" xmlns="http://www.w3.org/2000/svg"
 width="260.000000pt" height="260.000000pt" viewBox="0 0 260.000000 260.000000"
 preserveAspectRatio="xMidYMid meet">
<metadata>
Created by potrace 1.11, written by Peter Selinger 2001-2013
</metadata>
<g transform="translate(0.000000,260.000000) scale(0.100000,-0.100000)"
fill="#000000" stroke="none">
<path d="M1110 2095 c-74 -17 -155 -47 -220 -83 -38 -21 -214 -145 -230 -162
-3 -3 -39 -32 -80 -65 -96 -76 -243 -200 -295 -246 -22 -20 -78 -70 -125 -110
-47 -40 -95 -86 -107 -103 -29 -38 -29 -84 0 -127 l23 -34 326 -3 327 -2 -9
29 c-13 47 -9 186 7 249 38 144 147 288 273 360 170 96 398 94 566 -4 63 -37
156 -125 191 -180 l28 -44 128 0 127 0 -7 28 c-3 15 -20 52 -36 82 -110 204
-295 349 -517 406 -103 26 -273 30 -370 9z"/>
<path d="M1836 1433 c4 -10 8 -66 10 -124 2 -91 -1 -117 -23 -180 -34 -102
-82 -178 -157 -246 -180 -165 -422 -199 -646 -90 -74 36 -207 161 -229 215 -7
17 -19 32 -25 33 -16 1 -218 1 -238 0 -17 -1 -17 -3 -1 -43 120 -306 418 -506
750 -506 207 0 377 62 548 201 11 8 79 62 150 118 109 86 307 250 325 269 3 3
36 32 75 65 38 33 76 67 85 75 9 8 38 34 63 58 70 64 62 99 -34 150 -40 21
-51 22 -351 22 -292 0 -310 -1 -302 -17z"/>
</g>
</svg>
